<svg xmlns="http://www.w3.org/2000/svg" style="display:none">


    <symbol id="ic-tick" viewBox="0 0 16 16" xmlns="http://www.w3.org/2000/svg"
        version="1.1" fill="none" stroke="#000000" stroke-linecap="round" stroke-linejoin="round"
        stroke-width="1.5">
        <polyline points="2.75 8.75,6.25 12.25,13.25 4.75" />
    </symbol>

    <symbol id="ic-hourglass" viewBox="0 0 256 256">
        <rect width="256" height="256" fill="none" />
        <path
            d="M128,128,67.2,82.4A8,8,0,0,1,64,76V40a8,8,0,0,1,8-8H184a8,8,0,0,1,8,8V75.64A8,8,0,0,1,188.82,82L128,128h0"
            fill="none" stroke="currentColor" stroke-linecap="round" stroke-linejoin="round"
            stroke-width="16" />
        <path
            d="M128,128,67.2,173.6A8,8,0,0,0,64,180v36a8,8,0,0,0,8,8H184a8,8,0,0,0,8-8V180.36a8,8,0,0,0-3.18-6.38L128,128h0"
            fill="none" stroke="currentColor" stroke-linecap="round" stroke-linejoin="round"
            stroke-width="16" />
    </symbol>

    <symbol id="ic-clock" viewBox="0 0 24 24" fill="none"
        xmlns="http://www.w3.org/2000/svg">
        <path d="M12 8V12L14.5 14.5" stroke="currentcolor" stroke-width="1.5" stroke-linecap="round"
            stroke-linejoin="round" />
        <path
            d="M7 3.33782C8.47087 2.48697 10.1786 2 12 2C17.5228 2 22 6.47715 22 12C22 17.5228 17.5228 22 12 22C6.47715 22 2 17.5228 2 12C2 10.1786 2.48697 8.47087 3.33782 7"
            stroke="currentcolor" stroke-width="1.5" stroke-linecap="round" />
    </symbol>

    <symbol id="ic-soundon" fill="currentcolor" viewBox="0 0 36 36" version="1.1"
        preserveAspectRatio="xMidYMid meet" xmlns="http://www.w3.org/2000/svg"
        xmlns:xlink="http://www.w3.org/1999/xlink">
        <title>volume-up-solid</title>
        <path class="clr-i-solid clr-i-solid-path-1"
            d="M23.41,25.25a1,1,0,0,1-.54-1.85,6.21,6.21,0,0,0-.19-10.65,1,1,0,1,1,1-1.73,8.21,8.21,0,0,1,.24,14.06A1,1,0,0,1,23.41,25.25Z"></path>
        <path class="clr-i-solid clr-i-solid-path-2"
            d="M25.62,31.18a1,1,0,0,1-.45-1.89A12.44,12.44,0,0,0,25,6.89a1,1,0,1,1,.87-1.8,14.44,14.44,0,0,1,.24,26A1,1,0,0,1,25.62,31.18Z"></path>
        <path class="clr-i-solid clr-i-solid-path-3"
            d="M18.33,4,9.07,12h-6a1,1,0,0,0-1,1v9.92a1,1,0,0,0,1,1H8.88l9.46,8.24A1,1,0,0,0,20,31.43V4.72A1,1,0,0,0,18.33,4Z"></path>
        <rect x="0" y="0" width="36" height="36" fill-opacity="0" />
    </symbol>

    <symbol id="ic-soundoff" viewBox="0 0 512 512" version="1.1"
        xmlns="http://www.w3.org/2000/svg" xmlns:xlink="http://www.w3.org/1999/xlink">
        <title>sound-off-filled</title>
        <g id="Page-1" stroke="none" stroke-width="1" fill="currentcolor" fill-rule="evenodd">
            <g id="icon" fill="#currentcolor" transform="translate(42.666667, 59.581722)">
                <path
                    d="M47.0849493,-1.42108547e-14 L298.668,251.583611 L304.101001,257.015597 L304.101,257.016 L353.573532,306.488791 C353.573732,306.488458 353.573933,306.488124 353.574133,306.48779 L384.435257,337.348961 L384.434,337.349 L409.751616,362.666662 L379.581717,392.836561 L191.749,205.003 L191.749973,369.105851 L81.0208,283.647505 L7.10542736e-15,283.647505 L7.10542736e-15,112.980838 L80.8957867,112.980838 L91.433,104.688 L16.9150553,30.169894 L47.0849493,-1.42108547e-14 Z M361.298133,28.0146513 C429.037729,103.653701 443.797162,209.394226 405.578884,298.151284 L372.628394,265.201173 C396.498256,194.197542 381.626623,113.228555 328.013013,54.642278 L361.298133,28.0146513 Z M276.912853,95.5237713 C305.539387,127.448193 318.4688,168.293162 315.701304,208.275874 L266.464558,159.040303 C261.641821,146.125608 254.316511,133.919279 244.488548,123.156461 L243.588693,122.182545 L276.912853,95.5237713 Z M191.749973,25.7516113 L191.749,84.3256113 L158.969,51.5456113 L191.749973,25.7516113 Z"
                    id="Combined-Shape">

                </path>
            </g>
        </g>
    </symbol>

    <symbol id="ic-fullscreen" viewBox="0 0 24 24" fill="none"
        xmlns="http://www.w3.org/2000/svg">
        <path
            d="M9.00002 3.99998H4.00004L4 9M20 8.99999V4L15 3.99997M15 20H20L20 15M4 15L4 20L9.00002 20"
            stroke="currentcolor" stroke-width="1.5" stroke-linecap="round" stroke-linejoin="round" />
    </symbol>


    <symbol id="ic-play" viewBox="0 0 24 24" fill="none"
        xmlns="http://www.w3.org/2000/svg">
        <path
            d="M21.4086 9.35258C23.5305 10.5065 23.5305 13.4935 21.4086 14.6474L8.59662 21.6145C6.53435 22.736 4 21.2763 4 18.9671L4 5.0329C4 2.72368 6.53435 1.26402 8.59661 2.38548L21.4086 9.35258Z"
            fill="currentcolor" />
    </symbol>


    <symbol id="ic-pause" viewBox="-1 0 8 8" version="1.1"
        xmlns="http://www.w3.org/2000/svg" xmlns:xlink="http://www.w3.org/1999/xlink">

        <title>pause [#1010]</title>
        <desc>Created with Sketch.</desc>
        <defs>

        </defs>
        <g id="Page-1" stroke="none" stroke-width="1" fill="none" fill-rule="evenodd">
            <g id="Dribbble-Light-Preview" transform="translate(-67.000000, -3765.000000)"
                fill="currentcolor">
                <g id="icons" transform="translate(56.000000, 160.000000)">
                    <path
                        d="M11,3613 L13,3613 L13,3605 L11,3605 L11,3613 Z M15,3613 L17,3613 L17,3605 L15,3605 L15,3613 Z"
                        id="pause-[#1010]">

                    </path>
                </g>
            </g>
        </g>
    </symbol>


    <symbol id="ic-reset" viewBox="0 0 21 21" xmlns="http://www.w3.org/2000/svg">

        <g fill="none" fill-rule="evenodd" stroke="currentcolor" stroke-linecap="round"
            stroke-linejoin="round" transform="matrix(0 1 1 0 2.5 2.5)">

            <path
                d="m3.98652376 1.07807068c-2.38377179 1.38514556-3.98652376 3.96636605-3.98652376 6.92192932 0 4.418278 3.581722 8 8 8s8-3.581722 8-8-3.581722-8-8-8" />

            <path d="m4 1v4h-4" transform="matrix(1 0 0 -1 0 6)" />

        </g>

    </symbol>

</svg>